<?xml version="1.0" standalone="no"?><!DOCTYPE svg PUBLIC "-//W3C//DTD SVG 1.1//EN" "http://www.w3.org/Graphics/SVG/1.1/DTD/svg11.dtd"><svg t="1633444408789" class="icon" viewBox="0 0 4384 1024" version="1.1" xmlns="http://www.w3.org/2000/svg" p-id="790" xmlns:xlink="http://www.w3.org/1999/xlink" width="856.25" height="200"><defs><style type="text/css"></style></defs><path d="M215.52 308.352h-22.368c-7.104 0-13.216 1.28-17.28 5.12-4.064 2.528-7.104 7.616-9.152 11.424-2.016 5.12-3.04 10.208-4.064 15.296-1.024 6.4-1.024 11.456-1.024 15.296v114.624c0 14.016-2.016 25.472-7.104 34.4-5.088 8.928-11.2 16.576-19.328 21.664-7.104 5.088-16.256 8.896-24.384 11.456-9.152 2.56-17.28 3.84-24.416 3.84v1.28c6.336 0 13.44 0.96 21.376 2.08l3.04 0.448c9.152 1.28 17.28 5.088 24.384 10.176 7.136 5.12 14.24 12.736 19.328 22.944 5.088 10.176 7.104 24.192 7.104 40.768v108.256c0 5.12 0 10.208 1.024 15.296 1.024 6.368 2.048 11.456 5.088 15.264 2.048 5.12 6.08 8.928 11.2 11.488 5.056 2.56 11.168 5.088 20.32 5.088h17.28v126.08H144.352c-10.144 0-20.32-2.528-30.496-6.336a104.864 104.864 0 0 1-29.472-17.856c-9.152-7.616-16.256-19.104-22.368-31.84-6.08-12.736-8.128-28.032-8.128-45.856v-142.656c0-11.456-2.048-20.384-6.08-26.752a48.576 48.576 0 0 0-15.264-15.296 56.128 56.128 0 0 0-18.304-7.616c-6.08-1.28-11.2-1.28-14.24-1.28v-121.024c4.064 0 8.128 0 14.24-1.28 6.08-1.28 12.192-2.56 17.28-6.368 6.08-3.84 10.176-7.648 15.232-14.016 5.12-6.368 6.112-13.984 6.112-24.192V289.28c0-17.824 3.04-33.12 8.128-45.856 6.08-12.736 13.216-22.944 22.4-31.84 9.12-7.68 18.272-14.016 29.44-17.856 10.176-3.808 20.352-6.368 30.528-6.368h72.16v121.024z m880.96 0h22.368c7.104 0 13.216 1.28 17.28 5.12 4.064 2.528 7.104 7.616 9.152 11.424 2.016 5.12 3.04 10.208 4.064 15.296 1.024 6.4 1.024 11.456 1.024 15.296v114.624c0 14.016 2.016 25.472 7.104 34.4 5.088 8.928 11.2 16.576 19.328 21.664 7.104 5.088 16.256 8.896 24.384 11.456 9.152 2.56 17.28 3.84 24.416 3.84v1.28c-6.336 0-13.44 0.96-21.376 2.08l-3.04 0.448c-9.152 1.28-17.28 5.088-24.384 10.176-7.136 5.12-14.24 12.736-19.328 22.944-5.088 10.176-7.104 24.192-7.104 40.768v108.256c0 5.12 0 10.208-1.024 15.296-1.024 6.368-2.048 11.456-5.088 15.264a22.336 22.336 0 0 1-11.2 11.488c-5.056 2.56-11.168 5.088-20.32 5.088h-17.28v126.08h72.192c10.144 0 20.32-2.528 30.496-6.336 10.176-3.84 20.32-10.208 29.472-17.856 9.152-7.616 16.256-19.104 22.368-31.84 6.08-12.736 8.128-28.032 8.128-45.856v-142.656c0-11.456 2.048-20.384 6.08-26.752 4.096-6.368 9.184-11.456 15.264-15.296 6.112-3.84 12.224-6.368 18.304-7.616 6.08-1.28 11.2-1.28 14.24-1.28v-121.024c-4.064 0-8.128 0-14.24-1.28-6.08-1.28-12.192-2.56-17.28-6.368a56.128 56.128 0 0 1-15.232-14.016c-5.12-6.368-6.112-13.984-6.112-24.192V289.28a123.2 123.2 0 0 0-8.128-45.856 108.384 108.384 0 0 0-22.4-31.84c-9.12-7.68-18.272-14.016-29.44-17.856a87.168 87.168 0 0 0-30.528-6.368h-72.16v121.024zM871.584 637.76L451.008 212.8H351.04V313.92l420.576 424.928-74.944 75.68 49.824 50.368 86.24-88.192 113.792 113.184c13.792 13.92 36.064 13.92 49.856 0l25.088-25.344a35.84 35.84 0 0 0 0-50.368l-112.384-113.536 87.296-88.192-49.856-50.368-74.912 75.712z m89.408-324.256l-167.52 169.28-100-100.704 167.52-169.28h100v100.704z m-442.464 245.344l100 102.464-78.08 77.504 74.912 75.68-49.824 50.368-86.24-88.192-113.792 113.536a34.944 34.944 0 0 1-49.824 0l-25.12-25.344a35.84 35.84 0 0 1 0-50.368l112.384-113.92-87.264-88.192 49.824-50.336 74.912 75.712 78.08-78.912z" fill="#fb9678" p-id="791"></path><path d="M1665.856 838.656c-49.92 0-90.144-14.72-120.64-44.096-29.952-29.952-44.928-69.888-44.928-119.808v-269.568c0-49.376 14.976-88.736 44.928-118.144 30.496-29.408 70.72-44.096 120.64-44.096 50.464 0 90.688 14.72 120.64 44.096 30.496 29.408 45.76 68.8 45.76 118.144v9.152a10.336 10.336 0 0 1-3.328 7.488 8.992 8.992 0 0 1-6.656 2.496l-97.344 4.16c-6.656 0-9.984-3.04-9.984-9.152v-21.632c0-16.096-4.448-29.12-13.312-39.104-8.864-9.984-20.8-14.976-35.776-14.976-14.4 0-26.08 4.992-34.944 14.976-8.864 9.984-13.312 23.04-13.312 39.104v287.04c0 16.096 4.448 29.12 13.312 39.104 8.864 9.44 20.512 14.144 34.944 14.144 14.976 0 26.88-4.704 35.776-14.144 8.864-9.984 13.312-23.04 13.312-39.104v-22.464c0-2.784 0.832-4.992 2.496-6.656a10.336 10.336 0 0 1 7.488-3.328l97.344 4.16c2.784 0 4.992 1.12 6.656 3.328 2.24 1.664 3.328 3.872 3.328 6.656v8.32c0 49.92-15.264 89.856-45.76 119.808-30.496 29.408-70.72 44.096-120.64 44.096z m378.464 0c-32.192 0-60.48-6.4-84.864-19.136a138.048 138.048 0 0 1-56.576-53.248c-13.344-23.296-20-49.92-20-79.872v-24.128c0-2.784 0.832-4.992 2.496-6.656a10.368 10.368 0 0 1 7.52-3.328h95.68c2.752 0 4.96 1.12 6.624 3.328 2.24 1.664 3.36 3.872 3.36 6.656v18.304c0 17.184 4.416 31.04 13.312 41.6 8.864 10.56 19.936 15.808 33.28 15.808 13.28 0 24.384-4.992 33.28-14.976 8.864-9.984 13.312-23.04 13.312-39.104 0-16.64-5.568-30.784-16.64-42.432-11.104-12.192-32.736-29.952-64.896-53.248-27.744-19.968-50.24-37.728-67.424-53.248a210.592 210.592 0 0 1-44.096-57.408c-12.16-22.72-18.304-49.088-18.304-79.04 0-47.136 14.72-84.864 44.128-113.152 29.376-28.288 68.224-42.432 116.48-42.432 48.8 0 87.904 14.72 117.312 44.096 29.92 29.408 44.896 67.936 44.896 115.648v19.968a10.336 10.336 0 0 1-3.296 7.488 8.992 8.992 0 0 1-6.688 2.496h-95.68a12.16 12.16 0 0 1-7.488-2.496 12.16 12.16 0 0 1-2.464-7.488v-22.464c0-17.184-4.48-30.784-13.312-40.768a40.256 40.256 0 0 0-33.28-15.808c-13.312 0-24.16 4.992-32.448 14.976-8.32 9.44-12.48 22.72-12.48 39.936 0 16.64 5.248 31.36 15.776 44.096 10.56 12.768 31.36 30.496 62.4 53.248 34.4 25.504 60.192 46.304 77.408 62.4 17.728 15.52 31.328 32.992 40.736 52.416 10.016 18.88 15.008 41.6 15.008 68.224 0 48.8-14.976 87.648-44.928 116.48-29.952 28.832-69.344 43.264-118.144 43.264z m369.664 0c-32.16 0-60.48-6.4-84.864-19.136a138.048 138.048 0 0 1-56.576-53.248c-13.312-23.296-19.968-49.92-19.968-79.872v-24.128c0-2.784 0.832-4.992 2.496-6.656a10.336 10.336 0 0 1 7.488-3.328h95.68c2.784 0 4.992 1.12 6.656 3.328 2.24 1.664 3.328 3.872 3.328 6.656v18.304c0 17.184 4.448 31.04 13.312 41.6 8.896 10.56 19.968 15.808 33.28 15.808 13.312 0 24.416-4.992 33.28-14.976 8.896-9.984 13.312-23.04 13.312-39.104 0-16.64-5.536-30.784-16.64-42.432-11.072-12.192-32.704-29.952-64.896-53.248-27.712-19.968-50.176-37.728-67.392-53.248a210.464 210.464 0 0 1-44.096-57.408c-12.192-22.72-18.304-49.088-18.304-79.04 0-47.136 14.72-84.864 44.096-113.152 29.408-28.288 68.224-42.432 116.48-42.432 48.832 0 87.936 14.72 117.312 44.096 29.952 29.408 44.928 67.936 44.928 115.648v19.968a10.336 10.336 0 0 1-3.328 7.488 8.992 8.992 0 0 1-6.656 2.496h-95.68a12.16 12.16 0 0 1-7.488-2.496 12.16 12.16 0 0 1-2.496-7.488v-22.464c0-17.184-4.416-30.784-13.312-40.768a40.256 40.256 0 0 0-33.28-15.808c-13.312 0-24.128 4.992-32.448 14.976-8.32 9.44-12.48 22.72-12.48 39.936 0 16.64 5.28 31.36 15.808 44.096 10.56 12.768 31.36 30.496 62.4 53.248 34.4 25.504 60.16 46.304 77.376 62.4 17.76 15.52 31.36 32.992 40.768 52.416 9.984 18.88 14.976 41.6 14.976 68.224 0 48.8-14.976 87.648-44.928 116.48-29.952 28.832-69.312 43.264-118.144 43.264z m551.968-167.232c0 51.584-15.552 91.232-46.592 118.976S2848.064 832 2798.72 832h-157.248a12.16 12.16 0 0 1-7.488-2.496 12.16 12.16 0 0 1-2.496-7.488V259.584c0-2.784 0.832-4.992 2.496-6.656a10.368 10.368 0 0 1 7.488-3.328h138.944c55.456 0 98.72 13.312 129.792 39.936 31.616 26.624 47.424 66.272 47.424 118.976 0 54.912-18.88 94.848-56.576 119.808-2.24 1.664-2.496 3.328-0.832 4.992 43.84 31.04 65.728 77.12 65.728 138.112zM2752.96 350.272c-2.784 0-4.16 1.376-4.16 4.16v130.624c0 2.784 1.376 4.16 4.16 4.16h29.952c18.88 0 33.568-5.824 44.096-17.472 10.56-12.192 15.808-29.12 15.808-50.752 0-22.72-5.28-40.224-15.808-52.416-9.984-12.192-24.672-18.304-44.096-18.304h-29.952z m36.608 380.224c18.304 0 32.704-6.656 43.264-19.968 10.56-13.312 15.808-32.16 15.808-56.576 0-24.416-5.28-43.84-15.808-58.24a49.92 49.92 0 0 0-42.432-21.632h-37.44c-2.784 0-4.16 1.376-4.16 4.16v148.096c0 2.784 1.376 4.16 4.16 4.16h36.608z m382.496-332.8c47.136 0 85.408 12.768 114.816 38.272 29.376 25.504 44.096 59.072 44.096 100.672v285.376a10.4 10.4 0 0 1-3.328 7.488 9.024 9.024 0 0 1-6.656 2.496h-97.344a12.128 12.128 0 0 1-7.488-2.496 12.16 12.16 0 0 1-2.496-7.488v-18.304c0-1.664-0.576-2.784-1.664-3.328-1.12-0.544-2.24 0-3.328 1.664-18.304 23.296-46.592 35.52-84.864 36.608-32.192 0-60.16-8.864-84.032-26.624-23.296-17.76-34.944-51.584-34.944-101.504 0-51.584 14.144-87.072 42.432-106.496 28.832-19.424 70.144-29.12 123.968-29.12h38.272c2.752 0 4.16-1.376 4.16-4.16v-20.8c0-14.976-4.16-27.2-12.48-36.608a36.32 36.32 0 0 0-29.952-14.976c-9.44 0-17.472 3.04-24.128 9.152-6.08 5.536-9.984 13.6-11.648 24.128-0.576 6.656-4.16 9.984-10.816 9.984l-99.84-0.832c-6.656 0-9.984-3.328-9.984-9.984 2.752-40.48 18.56-72.64 47.424-96.512 28.832-24.416 65.44-36.608 109.824-36.608z m-8.32 350.272c12.736 0 24.128-4.16 34.112-12.48 10.528-8.864 15.808-20.512 15.808-34.944V661.44c0-2.784-1.408-4.16-4.16-4.16h-34.112c-14.976 0-27.2 4.448-36.608 13.312-8.896 8.32-13.312 19.968-13.312 34.944 0 13.856 3.328 24.416 9.984 31.616 7.2 7.2 16.64 10.816 28.288 10.816z m419.552-271.232a10.24 10.24 0 0 1-3.328 7.488 8.96 8.96 0 0 1-6.656 2.496h-46.592c-2.752 0-4.16 1.376-4.16 4.16v198.016c0 16.096 3.072 27.2 9.152 33.28 6.112 6.08 15.264 8.864 27.456 8.32h5.824c2.784 0 4.992 1.12 6.656 3.328 2.24 1.664 3.328 3.872 3.328 6.656v81.536a10.24 10.24 0 0 1-3.328 7.488 8.96 8.96 0 0 1-6.656 2.496h-33.28c-40.48 0-70.976-6.656-91.52-19.968-20.512-13.856-30.784-39.936-30.784-78.208V490.88c0-2.784-1.376-4.16-4.16-4.16h-27.456a12.256 12.256 0 0 1-7.488-2.496 12.16 12.16 0 0 1-2.496-7.488v-62.4c0-2.784 0.832-4.992 2.496-6.656a10.432 10.432 0 0 1 7.488-3.328h27.456c2.784 0 4.16-1.376 4.16-4.16V307.84c0-2.784 0.832-4.992 2.496-6.656a10.432 10.432 0 0 1 7.488-3.328h93.184c2.784 0 4.992 1.12 6.656 3.328 2.24 1.664 3.328 3.872 3.328 6.656v92.352c0 2.784 1.408 4.16 4.16 4.16h46.592c2.784 0 4.992 1.12 6.656 3.328 2.24 1.664 3.328 3.872 3.328 6.656v62.4z m242.144 0a10.4 10.4 0 0 1-3.328 7.488 9.024 9.024 0 0 1-6.656 2.496h-46.592c-2.784 0-4.16 1.376-4.16 4.16v198.016c0 16.096 3.04 27.2 9.152 33.28 6.08 6.08 15.232 8.864 27.456 8.32h5.824c2.752 0 4.992 1.12 6.656 3.328a7.936 7.936 0 0 1 3.328 6.656v81.536a10.4 10.4 0 0 1-3.328 7.488 9.024 9.024 0 0 1-6.656 2.496h-33.28c-40.512 0-71.008-6.656-91.52-19.968-20.544-13.856-30.784-39.936-30.784-78.208V490.88c0-2.784-1.408-4.16-4.16-4.16h-27.456a12.128 12.128 0 0 1-7.488-2.496 12.16 12.16 0 0 1-2.496-7.488v-62.4c0-2.784 0.832-4.992 2.496-6.656a10.304 10.304 0 0 1 7.488-3.328h27.456c2.752 0 4.16-1.376 4.16-4.16V307.84c0-2.784 0.832-4.992 2.496-6.656a10.304 10.304 0 0 1 7.488-3.328h93.184c2.752 0 4.992 1.12 6.656 3.328a7.936 7.936 0 0 1 3.328 6.656v92.352c0 2.784 1.376 4.16 4.16 4.16h46.592c2.752 0 4.992 1.12 6.656 3.328a7.936 7.936 0 0 1 3.328 6.656v62.4zM3879.52 832a12.128 12.128 0 0 1-7.488-2.496 12.16 12.16 0 0 1-2.496-7.488V259.584c0-2.784 0.832-4.992 2.496-6.656a10.304 10.304 0 0 1 7.488-3.328h97.344c2.784 0 4.992 1.12 6.656 3.328a7.936 7.936 0 0 1 3.328 6.656v562.432a10.4 10.4 0 0 1-3.328 7.488 8.96 8.96 0 0 1-6.656 2.496h-97.344z m475.904-187.2a10.4 10.4 0 0 1-3.328 7.488 9.024 9.024 0 0 1-6.656 2.496h-183.04c-2.784 0-4.16 1.376-4.16 4.16v30.784c0 13.856 3.584 25.504 10.816 34.944 7.744 8.864 17.472 13.312 29.12 13.312 10.528 0 19.136-3.328 25.792-9.984 6.656-7.2 11.072-16.096 13.312-26.624 1.664-5.536 5.248-8.32 10.816-8.32l95.68 4.992c2.752 0 4.992 1.12 6.656 3.328 2.208 1.664 3.04 4.16 2.496 7.488-3.904 42.72-18.88 75.168-44.928 97.344-25.536 21.632-62.144 32.448-109.824 32.448-49.376 0-87.936-12.192-115.648-36.608-27.744-24.96-41.6-59.36-41.6-103.168v-161.408c0-42.144 13.856-76 41.6-101.504 28.288-25.504 66.816-38.272 115.648-38.272 48.8 0 87.072 12.768 114.816 38.272 28.288 25.504 42.432 59.36 42.432 101.504v107.328z m-157.248-146.432c-11.648 0-21.376 4.448-29.12 13.312-7.232 8.864-10.816 20.256-10.816 34.112v32.448c0 2.784 1.376 4.16 4.16 4.16h71.552c2.752 0 4.16-1.376 4.16-4.16v-32.448c0-13.856-3.904-25.248-11.648-34.112a34.752 34.752 0 0 0-28.288-13.312z" fill="#fb9678" p-id="792"></path></svg>